<svg width="1334" height="148" viewBox="0 0 1334 148" fill="none" xmlns="http://www.w3.org/2000/svg">
<rect x="229" width="876" height="148" fill="#437581"/>
<path d="M229 0L228.998 148L152.645 76.9279C150.946 75.3459 150.946 72.6541 152.645 71.0722L229 0Z" fill="#437581"/>
<path d="M1105 148L1105 0L1181.35 71.0721C1183.05 72.6541 1183.05 75.3459 1181.35 76.9278L1105 148Z" fill="#437581"/>
<rect x="67" y="74.3555" width="50" height="50" rx="4" transform="rotate(-45 67 74.3555)" fill="#437581"/>
<rect y="74.3555" width="40" height="40" rx="4" transform="rotate(-45 0 74.3555)" fill="#437581"/>
<rect x="1266.57" y="74.2852" width="50" height="50" rx="4" transform="rotate(135 1266.57 74.2852)" fill="#437581"/>
<rect x="1333.57" y="74.2852" width="40" height="40" rx="4" transform="rotate(135 1333.57 74.2852)" fill="#437581"/>
</svg>
