<svg width="35" height="35" viewBox="0 0 35 35" fill="none" xmlns="http://www.w3.org/2000/svg">
<path d="M34.1455 14.3555L30.3242 14.1777C29.9756 14.1641 29.668 13.9453 29.5381 13.624L28.752 11.7305C28.6221 11.4092 28.6836 11.04 28.9229 10.7803L31.5 7.95703C31.8213 7.60156 31.8076 7.05469 31.4727 6.71289L28.3008 3.54102C27.959 3.19922 27.4121 3.18555 27.0566 3.51367L24.2197 6.08398C23.96 6.31641 23.5908 6.38477 23.2695 6.24805L21.376 5.46875C21.0547 5.33887 20.8359 5.02441 20.8223 4.67578L20.6445 0.861328C20.624 0.382813 20.2275 0 19.749 0H15.2578C14.7793 0 14.3828 0.375977 14.3555 0.861328L14.1777 4.67578C14.1641 5.02441 13.9453 5.33203 13.624 5.46875L11.7305 6.25488C11.4092 6.3916 11.0332 6.32324 10.7803 6.09082L7.95703 3.51367C7.60156 3.19238 7.05469 3.19922 6.71289 3.54102L3.54102 6.71289C3.19922 7.05469 3.18555 7.60156 3.51367 7.95703L6.08398 10.7803C6.32324 11.04 6.38477 11.4092 6.24805 11.7305L5.46875 13.624C5.33203 13.9453 5.03125 14.1641 4.67578 14.1777L0.861328 14.3555C0.382813 14.376 0 14.7725 0 15.251V19.7422C0 20.2207 0.375977 20.6172 0.861328 20.6377L4.67578 20.8154C5.02441 20.8291 5.33203 21.0479 5.46875 21.3691L6.25488 23.2627C6.3916 23.584 6.32324 23.9531 6.09082 24.2129L3.51367 27.0361C3.18555 27.3916 3.19922 27.9385 3.54102 28.2803L6.71973 31.4521C7.06152 31.7939 7.6084 31.8008 7.96387 31.4795L10.7871 28.9023C11.0469 28.6699 11.416 28.6016 11.7373 28.7383L13.6309 29.5244C13.9521 29.6611 14.1709 29.9688 14.1846 30.3174L14.3623 34.1318C14.3828 34.6104 14.7793 34.9932 15.2646 34.9932H19.7559C20.2344 34.9932 20.6309 34.6172 20.6514 34.1318L20.8291 30.3174C20.8428 29.9688 21.0615 29.6611 21.3828 29.5244L23.2764 28.7383C23.5977 28.6016 23.9668 28.6699 24.2266 28.9023L27.0498 31.4795C27.4053 31.8008 27.9521 31.7939 28.2939 31.4521L31.4658 28.2803C31.8076 27.9385 31.8145 27.3916 31.4932 27.0361L28.916 24.2197C28.6768 23.96 28.6152 23.5908 28.7451 23.2695L29.5312 21.376C29.6611 21.0547 29.9688 20.8359 30.3174 20.8223L34.1387 20.6445C34.6172 20.624 34.9932 20.2275 34.9932 19.749V15.2578C35 14.7725 34.624 14.376 34.1455 14.3555ZM17.5 23.2148C14.3418 23.2148 11.7852 20.6582 11.7852 17.5C11.7852 14.3418 14.3486 11.7852 17.5 11.7852C20.6514 11.7852 23.2148 14.3418 23.2148 17.5C23.2148 20.6582 20.6582 23.2148 17.5 23.2148Z" fill="#437580"/>
</svg>
