<svg width="539" height="101" viewBox="0 0 539 101" fill="none" xmlns="http://www.w3.org/2000/svg">
<g filter="url(#filter0_d_1429_9)">
<rect width="531" height="93" rx="10" fill="white"/>
<path fill-rule="evenodd" clip-rule="evenodd" d="M127.2 47.4581C127.2 46.0399 127.073 44.6763 126.836 43.3672H108V51.1036H118.764C118.3 53.6036 116.891 55.7217 114.773 57.1399V62.1581H121.236C125.018 58.6763 127.2 53.549 127.2 47.4581Z" fill="#4285F4"/>
<path fill-rule="evenodd" clip-rule="evenodd" d="M108.002 66.9988C113.402 66.9988 117.929 65.2079 121.238 62.1534L114.774 57.1352C112.983 58.3352 110.693 59.0443 108.002 59.0443C102.793 59.0443 98.3835 55.5261 96.8107 50.7988H90.1289V55.9806C93.4198 62.517 100.183 66.9988 108.002 66.9988Z" fill="#34A853"/>
<path fill-rule="evenodd" clip-rule="evenodd" d="M96.8091 50.7974C96.4091 49.5974 96.1818 48.3156 96.1818 46.9974C96.1818 45.6793 96.4091 44.3974 96.8091 43.1974V38.0156H90.1273C88.7727 40.7156 88 43.7702 88 46.9974C88 50.2247 88.7727 53.2793 90.1273 55.9793L96.8091 50.7974Z" fill="#FBBC05"/>
<path fill-rule="evenodd" clip-rule="evenodd" d="M108.002 34.9545C110.938 34.9545 113.574 35.9636 115.647 37.9455L121.383 32.2091C117.92 28.9818 113.393 27 108.002 27C100.183 27 93.4198 31.4818 90.1289 38.0182L96.8107 43.2C98.3835 38.4727 102.793 34.9545 108.002 34.9545Z" fill="#EA4335"/>
<path d="M159.744 59.384C158.464 59.384 157.237 59.2453 156.064 58.968C154.912 58.6693 153.973 58.3813 153.248 58.104L153.952 54.84C154.72 55.0747 155.605 55.32 156.608 55.576C157.632 55.832 158.624 55.96 159.584 55.96C160.437 55.96 161.195 55.832 161.856 55.576C162.517 55.2987 163.029 54.9147 163.392 54.424C163.755 53.9333 163.936 53.3467 163.936 52.664C163.936 51.96 163.712 51.3733 163.264 50.904C162.837 50.4347 162.261 50.0187 161.536 49.656C160.832 49.2933 160.064 48.9413 159.232 48.6C158.549 48.28 157.867 47.9387 157.184 47.576C156.501 47.192 155.872 46.7547 155.296 46.264C154.741 45.752 154.293 45.144 153.952 44.44C153.632 43.736 153.472 42.904 153.472 41.944C153.472 40.5147 153.824 39.3093 154.528 38.328C155.253 37.3467 156.235 36.6 157.472 36.088C158.709 35.576 160.096 35.32 161.632 35.32C162.72 35.32 163.755 35.4373 164.736 35.672C165.717 35.8853 166.539 36.1413 167.2 36.44L166.56 39.704C166.027 39.4907 165.323 39.2773 164.448 39.064C163.573 38.8507 162.677 38.744 161.76 38.744C160.501 38.744 159.499 39.0213 158.752 39.576C158.027 40.1093 157.664 40.824 157.664 41.72C157.664 42.4027 157.877 42.9787 158.304 43.448C158.752 43.896 159.328 44.3013 160.032 44.664C160.736 45.0053 161.483 45.3573 162.272 45.72C162.976 46.0187 163.669 46.36 164.352 46.744C165.056 47.1067 165.696 47.544 166.272 48.056C166.848 48.5467 167.307 49.144 167.648 49.848C168.011 50.552 168.192 51.3947 168.192 52.376C168.192 53.784 167.84 55.0213 167.136 56.088C166.453 57.1333 165.483 57.944 164.224 58.52C162.965 59.096 161.472 59.384 159.744 59.384ZM172.446 42.36L176.574 42.232V59H172.446V42.36ZM174.494 40.024C173.833 40.024 173.257 39.8107 172.766 39.384C172.297 38.9573 172.062 38.4027 172.062 37.72C172.062 37.0373 172.297 36.4827 172.766 36.056C173.257 35.6293 173.833 35.416 174.494 35.416C175.156 35.416 175.721 35.6293 176.19 36.056C176.681 36.4827 176.926 37.0373 176.926 37.72C176.926 38.4027 176.681 38.9573 176.19 39.384C175.721 39.8107 175.156 40.024 174.494 40.024ZM188.024 54.552C186.702 54.552 185.496 54.296 184.408 53.784C183.342 53.272 182.499 52.5467 181.88 51.608C181.262 50.6693 180.952 49.56 180.952 48.28C180.952 47.0213 181.262 45.9227 181.88 44.984C182.499 44.0453 183.342 43.32 184.408 42.808C185.496 42.2747 186.702 42.008 188.024 42.008C189.39 42.008 190.595 42.2747 191.64 42.808C192.707 43.32 193.55 44.0453 194.168 44.984C194.787 45.9227 195.096 47.0213 195.096 48.28C195.096 49.5387 194.787 50.648 194.168 51.608C193.571 52.5467 192.739 53.272 191.672 53.784C190.627 54.296 189.411 54.552 188.024 54.552ZM188.024 51.96C188.728 51.96 189.304 51.8107 189.752 51.512C190.222 51.192 190.563 50.7547 190.776 50.2C191.011 49.6453 191.128 49.0053 191.128 48.28C191.128 47.576 191.011 46.9467 190.776 46.392C190.563 45.8373 190.222 45.4107 189.752 45.112C189.304 44.792 188.728 44.632 188.024 44.632C187.342 44.632 186.766 44.792 186.296 45.112C185.848 45.4107 185.507 45.8373 185.272 46.392C185.059 46.9467 184.952 47.576 184.952 48.28C184.952 49.0053 185.07 49.6453 185.304 50.2C185.539 50.7547 185.88 51.192 186.328 51.512C186.776 51.8107 187.342 51.96 188.024 51.96ZM187.736 66.52C186.776 66.52 185.816 66.4347 184.856 66.264C183.918 66.1147 183.064 65.8693 182.296 65.528C181.528 65.1867 180.91 64.728 180.44 64.152C179.992 63.576 179.768 62.872 179.768 62.04C179.768 61.1227 180.003 60.3653 180.472 59.768C180.942 59.1707 181.55 58.6587 182.296 58.232V58.168C181.934 57.912 181.656 57.6347 181.464 57.336C181.294 57.0373 181.208 56.6853 181.208 56.28C181.208 55.6613 181.443 55.064 181.912 54.488C182.382 53.8907 182.926 53.3573 183.544 52.888L185.144 53.656C184.846 53.9333 184.6 54.2213 184.408 54.52C184.238 54.8187 184.152 55.1173 184.152 55.416C184.152 55.7573 184.302 56.0027 184.6 56.152C184.899 56.3013 185.336 56.3973 185.912 56.44L190.232 56.696C190.83 56.7387 191.502 56.8133 192.248 56.92C192.995 57.0053 193.71 57.1867 194.392 57.464C195.075 57.7413 195.63 58.1467 196.056 58.68C196.504 59.2133 196.728 59.9387 196.728 60.856C196.728 61.816 196.408 62.7227 195.768 63.576C195.15 64.4507 194.179 65.1547 192.856 65.688C191.534 66.2427 189.827 66.52 187.736 66.52ZM188.024 63.48C189.24 63.48 190.211 63.3627 190.936 63.128C191.683 62.9147 192.227 62.6373 192.568 62.296C192.91 61.9547 193.08 61.5813 193.08 61.176C193.08 60.8133 192.974 60.5253 192.76 60.312C192.568 60.0987 192.291 59.928 191.928 59.8C191.587 59.6933 191.214 59.608 190.808 59.544C190.424 59.5013 190.051 59.4693 189.688 59.448L185.88 59.224C185.411 59.1813 185.038 59.128 184.76 59.064C184.483 59 184.248 58.9147 184.056 58.808L184.44 58.872C184.056 59.0853 183.726 59.3733 183.448 59.736C183.192 60.12 183.064 60.536 183.064 60.984C183.064 61.4533 183.192 61.8373 183.448 62.136C183.704 62.456 184.056 62.712 184.504 62.904C184.974 63.096 185.507 63.2347 186.104 63.32C186.723 63.4267 187.363 63.48 188.024 63.48ZM189.88 42.36H196.92V44.536H193.08L189.88 42.36ZM200.239 47.416C200.239 46.456 200.228 45.56 200.207 44.728C200.207 43.896 200.186 43.1067 200.143 42.36L203.695 42.232L203.983 44.472H204.111C204.474 44.1307 204.922 43.768 205.455 43.384C206.01 43 206.639 42.68 207.343 42.424C208.047 42.1467 208.826 42.008 209.679 42.008C210.554 42.008 211.322 42.1573 211.983 42.456C212.666 42.7547 213.242 43.2027 213.711 43.8C214.18 44.376 214.532 45.1013 214.767 45.976C215.023 46.8293 215.151 47.8107 215.151 48.92V59H211.023V49.048C211.023 48.344 210.938 47.7573 210.767 47.288C210.596 46.7973 210.372 46.4133 210.095 46.136C209.818 45.8373 209.498 45.624 209.135 45.496C208.794 45.368 208.442 45.304 208.079 45.304C207.524 45.304 207.012 45.4 206.543 45.592C206.095 45.784 205.69 46.0293 205.327 46.328C204.964 46.6053 204.644 46.8933 204.367 47.192V59H200.239V47.416ZM228.411 42.36L232.539 42.232V59H228.411V42.36ZM230.459 40.024C229.798 40.024 229.222 39.8107 228.731 39.384C228.262 38.9573 228.027 38.4027 228.027 37.72C228.027 37.0373 228.262 36.4827 228.731 36.056C229.222 35.6293 229.798 35.416 230.459 35.416C231.121 35.416 231.686 35.6293 232.155 36.056C232.646 36.4827 232.891 37.0373 232.891 37.72C232.891 38.4027 232.646 38.9573 232.155 39.384C231.686 39.8107 231.121 40.024 230.459 40.024ZM237.525 47.416C237.525 46.456 237.515 45.56 237.493 44.728C237.493 43.896 237.472 43.1067 237.429 42.36L240.981 42.232L241.269 44.472H241.397C241.76 44.1307 242.208 43.768 242.741 43.384C243.296 43 243.925 42.68 244.629 42.424C245.333 42.1467 246.112 42.008 246.965 42.008C247.84 42.008 248.608 42.1573 249.269 42.456C249.952 42.7547 250.528 43.2027 250.997 43.8C251.467 44.376 251.819 45.1013 252.053 45.976C252.309 46.8293 252.437 47.8107 252.437 48.92V59H248.309V49.048C248.309 48.344 248.224 47.7573 248.053 47.288C247.883 46.7973 247.659 46.4133 247.381 46.136C247.104 45.8373 246.784 45.624 246.421 45.496C246.08 45.368 245.728 45.304 245.365 45.304C244.811 45.304 244.299 45.4 243.829 45.592C243.381 45.784 242.976 46.0293 242.613 46.328C242.251 46.6053 241.931 46.8933 241.653 47.192V59H237.525V47.416ZM263.906 42.36H268.194L271.042 55.32H271.106L272.322 50.232L274.402 42.36H277.858L279.938 50.232L281.154 55.32H281.218L284.066 42.36H288.386L283.522 59H279.298L276.162 47.416H276.098L272.994 59H268.738L263.906 42.36ZM291.72 42.36L295.848 42.232V59H291.72V42.36ZM293.768 40.024C293.107 40.024 292.531 39.8107 292.04 39.384C291.571 38.9573 291.336 38.4027 291.336 37.72C291.336 37.0373 291.571 36.4827 292.04 36.056C292.531 35.6293 293.107 35.416 293.768 35.416C294.429 35.416 294.995 35.6293 295.464 36.056C295.955 36.4827 296.2 37.0373 296.2 37.72C296.2 38.4027 295.955 38.9573 295.464 39.384C294.995 39.8107 294.429 40.024 293.768 40.024ZM306.402 59.352C305.399 59.352 304.589 59.2027 303.97 58.904C303.351 58.6053 302.871 58.1893 302.53 57.656C302.189 57.1013 301.954 56.472 301.826 55.768C301.698 55.0427 301.634 54.2427 301.634 53.368V45.368H299.426L299.618 42.488L301.826 42.36L302.082 38.584L305.762 37.816V42.36H309.73L309.506 45.368H305.762V52.952C305.762 53.5067 305.826 54.008 305.954 54.456C306.082 54.8827 306.306 55.2347 306.626 55.512C306.967 55.7893 307.458 55.928 308.098 55.928C308.375 55.928 308.642 55.9173 308.898 55.896C309.175 55.8533 309.431 55.8 309.666 55.736L309.698 58.872C309.357 58.9787 308.866 59.0853 308.226 59.192C307.607 59.2987 306.999 59.352 306.402 59.352ZM313.575 35.064L317.735 34.936V44.472H317.767C318.237 44.0027 318.738 43.5867 319.271 43.224C319.826 42.84 320.413 42.5413 321.031 42.328C321.65 42.1147 322.311 42.008 323.015 42.008C323.911 42.008 324.69 42.1573 325.351 42.456C326.034 42.7547 326.61 43.2133 327.079 43.832C327.549 44.4293 327.901 45.1653 328.135 46.04C328.391 46.8933 328.519 47.8853 328.519 49.016V59H324.391V49.208C324.391 48.504 324.317 47.9067 324.167 47.416C324.018 46.9253 323.805 46.5307 323.527 46.232C323.271 45.912 322.962 45.6773 322.599 45.528C322.237 45.3787 321.842 45.304 321.415 45.304C320.861 45.304 320.349 45.4107 319.879 45.624C319.431 45.816 319.026 46.0507 318.663 46.328C318.301 46.6053 317.991 46.8933 317.735 47.192V59H313.575V35.064ZM352.371 59.384C350.451 59.384 348.765 59.096 347.315 58.52C345.885 57.9227 344.691 57.0907 343.731 56.024C342.771 54.9573 342.045 53.7093 341.555 52.28C341.085 50.8293 340.851 49.2507 340.851 47.544C340.851 45.7307 341.117 44.0773 341.651 42.584C342.205 41.0907 342.984 39.8 343.987 38.712C345.011 37.624 346.248 36.792 347.699 36.216C349.149 35.6187 350.781 35.32 352.595 35.32C353.917 35.32 355.123 35.448 356.211 35.704C357.32 35.9387 358.205 36.184 358.867 36.44L358.259 39.864C357.533 39.5867 356.723 39.3413 355.827 39.128C354.931 38.8933 353.907 38.776 352.755 38.776C351.624 38.776 350.589 38.968 349.651 39.352C348.733 39.736 347.944 40.3013 347.283 41.048C346.621 41.7947 346.109 42.7013 345.747 43.768C345.384 44.8133 345.203 46.0187 345.203 47.384C345.203 49.2187 345.512 50.776 346.131 52.056C346.771 53.3147 347.645 54.2747 348.755 54.936C349.885 55.5973 351.176 55.928 352.627 55.928C353.203 55.928 353.736 55.8747 354.227 55.768C354.739 55.6613 355.176 55.5547 355.539 55.448V48.056L357.235 49.88H351.571L351.763 46.648H359.443V58.104C358.888 58.3173 358.227 58.52 357.459 58.712C356.712 58.904 355.901 59.064 355.027 59.192C354.152 59.32 353.267 59.384 352.371 59.384ZM371.441 59.352C370.353 59.352 369.318 59.1813 368.337 58.84C367.356 58.4987 366.481 57.976 365.713 57.272C364.945 56.568 364.326 55.672 363.857 54.584C363.409 53.4747 363.185 52.1733 363.185 50.68C363.185 49.1867 363.409 47.896 363.857 46.808C364.326 45.6987 364.945 44.792 365.713 44.088C366.481 43.384 367.356 42.8613 368.337 42.52C369.318 42.1787 370.353 42.008 371.441 42.008C372.508 42.008 373.532 42.1787 374.513 42.52C375.516 42.8613 376.401 43.384 377.169 44.088C377.937 44.792 378.545 45.6987 378.993 46.808C379.441 47.896 379.665 49.1867 379.665 50.68C379.665 52.1733 379.441 53.4747 378.993 54.584C378.545 55.672 377.937 56.568 377.169 57.272C376.401 57.976 375.516 58.4987 374.513 58.84C373.532 59.1813 372.508 59.352 371.441 59.352ZM371.441 56.344C372.081 56.344 372.646 56.216 373.137 55.96C373.628 55.704 374.044 55.3413 374.385 54.872C374.726 54.4027 374.982 53.816 375.153 53.112C375.324 52.408 375.409 51.5973 375.409 50.68C375.409 49.7627 375.324 48.952 375.153 48.248C374.982 47.544 374.726 46.9573 374.385 46.488C374.044 46.0187 373.628 45.656 373.137 45.4C372.646 45.144 372.081 45.016 371.441 45.016C370.801 45.016 370.236 45.144 369.745 45.4C369.254 45.656 368.838 46.0187 368.497 46.488C368.156 46.9573 367.889 47.544 367.697 48.248C367.526 48.952 367.441 49.7627 367.441 50.68C367.441 51.5973 367.526 52.408 367.697 53.112C367.889 53.816 368.156 54.4027 368.497 54.872C368.838 55.3413 369.254 55.704 369.745 55.96C370.236 56.216 370.801 56.344 371.441 56.344ZM391.088 59.352C390 59.352 388.966 59.1813 387.984 58.84C387.003 58.4987 386.128 57.976 385.36 57.272C384.592 56.568 383.974 55.672 383.504 54.584C383.056 53.4747 382.832 52.1733 382.832 50.68C382.832 49.1867 383.056 47.896 383.504 46.808C383.974 45.6987 384.592 44.792 385.36 44.088C386.128 43.384 387.003 42.8613 387.984 42.52C388.966 42.1787 390 42.008 391.088 42.008C392.155 42.008 393.179 42.1787 394.16 42.52C395.163 42.8613 396.048 43.384 396.816 44.088C397.584 44.792 398.192 45.6987 398.64 46.808C399.088 47.896 399.312 49.1867 399.312 50.68C399.312 52.1733 399.088 53.4747 398.64 54.584C398.192 55.672 397.584 56.568 396.816 57.272C396.048 57.976 395.163 58.4987 394.16 58.84C393.179 59.1813 392.155 59.352 391.088 59.352ZM391.088 56.344C391.728 56.344 392.294 56.216 392.784 55.96C393.275 55.704 393.691 55.3413 394.032 54.872C394.374 54.4027 394.63 53.816 394.8 53.112C394.971 52.408 395.056 51.5973 395.056 50.68C395.056 49.7627 394.971 48.952 394.8 48.248C394.63 47.544 394.374 46.9573 394.032 46.488C393.691 46.0187 393.275 45.656 392.784 45.4C392.294 45.144 391.728 45.016 391.088 45.016C390.448 45.016 389.883 45.144 389.392 45.4C388.902 45.656 388.486 46.0187 388.144 46.488C387.803 46.9573 387.536 47.544 387.344 48.248C387.174 48.952 387.088 49.7627 387.088 50.68C387.088 51.5973 387.174 52.408 387.344 53.112C387.536 53.816 387.803 54.4027 388.144 54.872C388.486 55.3413 388.902 55.704 389.392 55.96C389.883 56.216 390.448 56.344 391.088 56.344ZM409.808 54.552C408.485 54.552 407.28 54.296 406.192 53.784C405.125 53.272 404.283 52.5467 403.664 51.608C403.045 50.6693 402.736 49.56 402.736 48.28C402.736 47.0213 403.045 45.9227 403.664 44.984C404.283 44.0453 405.125 43.32 406.192 42.808C407.28 42.2747 408.485 42.008 409.808 42.008C411.173 42.008 412.379 42.2747 413.424 42.808C414.491 43.32 415.333 44.0453 415.952 44.984C416.571 45.9227 416.88 47.0213 416.88 48.28C416.88 49.5387 416.571 50.648 415.952 51.608C415.355 52.5467 414.523 53.272 413.456 53.784C412.411 54.296 411.195 54.552 409.808 54.552ZM409.808 51.96C410.512 51.96 411.088 51.8107 411.536 51.512C412.005 51.192 412.347 50.7547 412.56 50.2C412.795 49.6453 412.912 49.0053 412.912 48.28C412.912 47.576 412.795 46.9467 412.56 46.392C412.347 45.8373 412.005 45.4107 411.536 45.112C411.088 44.792 410.512 44.632 409.808 44.632C409.125 44.632 408.549 44.792 408.08 45.112C407.632 45.4107 407.291 45.8373 407.056 46.392C406.843 46.9467 406.736 47.576 406.736 48.28C406.736 49.0053 406.853 49.6453 407.088 50.2C407.323 50.7547 407.664 51.192 408.112 51.512C408.56 51.8107 409.125 51.96 409.808 51.96ZM409.52 66.52C408.56 66.52 407.6 66.4347 406.64 66.264C405.701 66.1147 404.848 65.8693 404.08 65.528C403.312 65.1867 402.693 64.728 402.224 64.152C401.776 63.576 401.552 62.872 401.552 62.04C401.552 61.1227 401.787 60.3653 402.256 59.768C402.725 59.1707 403.333 58.6587 404.08 58.232V58.168C403.717 57.912 403.44 57.6347 403.248 57.336C403.077 57.0373 402.992 56.6853 402.992 56.28C402.992 55.6613 403.227 55.064 403.696 54.488C404.165 53.8907 404.709 53.3573 405.328 52.888L406.928 53.656C406.629 53.9333 406.384 54.2213 406.192 54.52C406.021 54.8187 405.936 55.1173 405.936 55.416C405.936 55.7573 406.085 56.0027 406.384 56.152C406.683 56.3013 407.12 56.3973 407.696 56.44L412.016 56.696C412.613 56.7387 413.285 56.8133 414.032 56.92C414.779 57.0053 415.493 57.1867 416.176 57.464C416.859 57.7413 417.413 58.1467 417.84 58.68C418.288 59.2133 418.512 59.9387 418.512 60.856C418.512 61.816 418.192 62.7227 417.552 63.576C416.933 64.4507 415.963 65.1547 414.64 65.688C413.317 66.2427 411.611 66.52 409.52 66.52ZM409.808 63.48C411.024 63.48 411.995 63.3627 412.72 63.128C413.467 62.9147 414.011 62.6373 414.352 62.296C414.693 61.9547 414.864 61.5813 414.864 61.176C414.864 60.8133 414.757 60.5253 414.544 60.312C414.352 60.0987 414.075 59.928 413.712 59.8C413.371 59.6933 412.997 59.608 412.592 59.544C412.208 59.5013 411.835 59.4693 411.472 59.448L407.664 59.224C407.195 59.1813 406.821 59.128 406.544 59.064C406.267 59 406.032 58.9147 405.84 58.808L406.224 58.872C405.84 59.0853 405.509 59.3733 405.232 59.736C404.976 60.12 404.848 60.536 404.848 60.984C404.848 61.4533 404.976 61.8373 405.232 62.136C405.488 62.456 405.84 62.712 406.288 62.904C406.757 63.096 407.291 63.2347 407.888 63.32C408.507 63.4267 409.147 63.48 409.808 63.48ZM411.664 42.36H418.704V44.536H414.864L411.664 42.36ZM422.023 35.064L426.151 34.936V59H422.023V35.064ZM438.691 59.352C436.835 59.352 435.278 59.0107 434.019 58.328C432.782 57.624 431.843 56.632 431.203 55.352C430.584 54.072 430.275 52.5573 430.275 50.808C430.275 49.6133 430.435 48.4933 430.755 47.448C431.096 46.3813 431.598 45.4427 432.259 44.632C432.942 43.8 433.784 43.16 434.787 42.712C435.79 42.2427 436.952 42.008 438.275 42.008C439.619 42.008 440.76 42.2533 441.699 42.744C442.638 43.2347 443.374 43.9173 443.907 44.792C444.462 45.6667 444.824 46.6907 444.995 47.864C445.166 49.016 445.155 50.2533 444.963 51.576H432.483L434.659 49.976C434.296 51.32 434.254 52.4613 434.531 53.4C434.808 54.3387 435.352 55.0533 436.163 55.544C436.995 56.0347 438.03 56.28 439.267 56.28C440.12 56.28 440.963 56.1947 441.795 56.024C442.627 55.832 443.331 55.6507 443.907 55.48L444.355 58.328C443.587 58.6267 442.691 58.872 441.667 59.064C440.664 59.256 439.672 59.352 438.691 59.352ZM432.515 49.368H441.315C441.336 49.2613 441.347 49.1653 441.347 49.08C441.347 48.9947 441.347 48.9307 441.347 48.888C441.347 48.0987 441.24 47.4053 441.027 46.808C440.814 46.2107 440.462 45.7413 439.971 45.4C439.502 45.0373 438.883 44.856 438.115 44.856C437.219 44.856 436.472 45.1227 435.875 45.656C435.299 46.1893 434.883 46.872 434.627 47.704C434.392 48.536 434.328 49.4213 434.435 50.36L432.515 49.368Z" fill="#666666"/>
</g>
<defs>
<filter id="filter0_d_1429_9" x="0" y="0" width="539" height="101" filterUnits="userSpaceOnUse" color-interpolation-filters="sRGB">
<feFlood flood-opacity="0" result="BackgroundImageFix"/>
<feColorMatrix in="SourceAlpha" type="matrix" values="0 0 0 0 0 0 0 0 0 0 0 0 0 0 0 0 0 0 127 0" result="hardAlpha"/>
<feOffset dx="4" dy="4"/>
<feGaussianBlur stdDeviation="2"/>
<feComposite in2="hardAlpha" operator="out"/>
<feColorMatrix type="matrix" values="0 0 0 0 0.470833 0 0 0 0 0.470833 0 0 0 0 0.470833 0 0 0 0.25 0"/>
<feBlend mode="normal" in2="BackgroundImageFix" result="effect1_dropShadow_1429_9"/>
<feBlend mode="normal" in="SourceGraphic" in2="effect1_dropShadow_1429_9" result="shape"/>
</filter>
</defs>
</svg>
