<svg width="539" height="102" viewBox="0 0 539 102" fill="none" xmlns="http://www.w3.org/2000/svg">
<g filter="url(#filter0_d_1429_2)">
<rect width="531" height="93.2266" rx="10" fill="black"/>
<g clip-path="url(#clip0_1429_2)">
<path d="M126.209 40.009C125.939 40.189 121.169 42.497 121.169 47.629C121.169 53.565 127.238 55.665 127.42 55.717C127.392 55.845 126.456 58.593 124.22 61.393C122.226 63.857 120.144 66.317 116.977 66.317C113.81 66.317 112.994 64.737 109.338 64.737C105.775 64.737 104.508 66.369 101.611 66.369C98.7133 66.369 96.6918 64.089 94.3675 61.289C91.6752 58.001 89.5 52.893 89.5 48.045C89.5 40.269 95.3876 36.145 101.182 36.145C104.261 36.145 106.827 37.881 108.76 37.881C110.6 37.881 113.47 36.041 116.972 36.041C118.3 36.041 123.069 36.145 126.209 40.009ZM115.309 32.749C116.758 31.273 117.783 29.225 117.783 27.177C117.783 26.893 117.755 26.605 117.694 26.373C115.337 26.449 112.533 27.721 110.842 29.405C109.515 30.701 108.276 32.749 108.276 34.825C108.276 35.137 108.337 35.449 108.364 35.549C108.514 35.573 108.756 35.601 108.998 35.601C111.113 35.601 113.772 34.385 115.309 32.749Z" fill="white"/>
</g>
<path d="M161.744 59.757C160.464 59.757 159.237 59.6184 158.064 59.341C156.912 59.0424 155.973 58.7544 155.248 58.477L155.952 55.213C156.72 55.4477 157.605 55.693 158.608 55.949C159.632 56.205 160.624 56.333 161.584 56.333C162.437 56.333 163.195 56.205 163.856 55.949C164.517 55.6717 165.029 55.2877 165.392 54.797C165.755 54.3064 165.936 53.7197 165.936 53.037C165.936 52.333 165.712 51.7464 165.264 51.277C164.837 50.8077 164.261 50.3917 163.536 50.029C162.832 49.6664 162.064 49.3144 161.232 48.973C160.549 48.653 159.867 48.3117 159.184 47.949C158.501 47.565 157.872 47.1277 157.296 46.637C156.741 46.125 156.293 45.517 155.952 44.813C155.632 44.109 155.472 43.277 155.472 42.317C155.472 40.8877 155.824 39.6824 156.528 38.701C157.253 37.7197 158.235 36.973 159.472 36.461C160.709 35.949 162.096 35.693 163.632 35.693C164.72 35.693 165.755 35.8104 166.736 36.045C167.717 36.2584 168.539 36.5144 169.2 36.813L168.56 40.077C168.027 39.8637 167.323 39.6504 166.448 39.437C165.573 39.2237 164.677 39.117 163.76 39.117C162.501 39.117 161.499 39.3944 160.752 39.949C160.027 40.4824 159.664 41.197 159.664 42.093C159.664 42.7757 159.877 43.3517 160.304 43.821C160.752 44.269 161.328 44.6744 162.032 45.037C162.736 45.3784 163.483 45.7304 164.272 46.093C164.976 46.3917 165.669 46.733 166.352 47.117C167.056 47.4797 167.696 47.917 168.272 48.429C168.848 48.9197 169.307 49.517 169.648 50.221C170.011 50.925 170.192 51.7677 170.192 52.749C170.192 54.157 169.84 55.3944 169.136 56.461C168.453 57.5064 167.483 58.317 166.224 58.893C164.965 59.469 163.472 59.757 161.744 59.757ZM174.446 42.733L178.574 42.605V59.373H174.446V42.733ZM176.494 40.397C175.833 40.397 175.257 40.1837 174.766 39.757C174.297 39.3304 174.062 38.7757 174.062 38.093C174.062 37.4104 174.297 36.8557 174.766 36.429C175.257 36.0024 175.833 35.789 176.494 35.789C177.156 35.789 177.721 36.0024 178.19 36.429C178.681 36.8557 178.926 37.4104 178.926 38.093C178.926 38.7757 178.681 39.3304 178.19 39.757C177.721 40.1837 177.156 40.397 176.494 40.397ZM190.024 54.925C188.702 54.925 187.496 54.669 186.408 54.157C185.342 53.645 184.499 52.9197 183.88 51.981C183.262 51.0424 182.952 49.933 182.952 48.653C182.952 47.3944 183.262 46.2957 183.88 45.357C184.499 44.4184 185.342 43.693 186.408 43.181C187.496 42.6477 188.702 42.381 190.024 42.381C191.39 42.381 192.595 42.6477 193.64 43.181C194.707 43.693 195.55 44.4184 196.168 45.357C196.787 46.2957 197.096 47.3944 197.096 48.653C197.096 49.9117 196.787 51.021 196.168 51.981C195.571 52.9197 194.739 53.645 193.672 54.157C192.627 54.669 191.411 54.925 190.024 54.925ZM190.024 52.333C190.728 52.333 191.304 52.1837 191.752 51.885C192.222 51.565 192.563 51.1277 192.776 50.573C193.011 50.0184 193.128 49.3784 193.128 48.653C193.128 47.949 193.011 47.3197 192.776 46.765C192.563 46.2104 192.222 45.7837 191.752 45.485C191.304 45.165 190.728 45.005 190.024 45.005C189.342 45.005 188.766 45.165 188.296 45.485C187.848 45.7837 187.507 46.2104 187.272 46.765C187.059 47.3197 186.952 47.949 186.952 48.653C186.952 49.3784 187.07 50.0184 187.304 50.573C187.539 51.1277 187.88 51.565 188.328 51.885C188.776 52.1837 189.342 52.333 190.024 52.333ZM189.736 66.893C188.776 66.893 187.816 66.8077 186.856 66.637C185.918 66.4877 185.064 66.2424 184.296 65.901C183.528 65.5597 182.91 65.101 182.44 64.525C181.992 63.949 181.768 63.245 181.768 62.413C181.768 61.4957 182.003 60.7384 182.472 60.141C182.942 59.5437 183.55 59.0317 184.296 58.605V58.541C183.934 58.285 183.656 58.0077 183.464 57.709C183.294 57.4104 183.208 57.0584 183.208 56.653C183.208 56.0344 183.443 55.437 183.912 54.861C184.382 54.2637 184.926 53.7304 185.544 53.261L187.144 54.029C186.846 54.3064 186.6 54.5944 186.408 54.893C186.238 55.1917 186.152 55.4904 186.152 55.789C186.152 56.1304 186.302 56.3757 186.6 56.525C186.899 56.6744 187.336 56.7704 187.912 56.813L192.232 57.069C192.83 57.1117 193.502 57.1864 194.248 57.293C194.995 57.3784 195.71 57.5597 196.392 57.837C197.075 58.1144 197.63 58.5197 198.056 59.053C198.504 59.5864 198.728 60.3117 198.728 61.229C198.728 62.189 198.408 63.0957 197.768 63.949C197.15 64.8237 196.179 65.5277 194.856 66.061C193.534 66.6157 191.827 66.893 189.736 66.893ZM190.024 63.853C191.24 63.853 192.211 63.7357 192.936 63.501C193.683 63.2877 194.227 63.0104 194.568 62.669C194.91 62.3277 195.08 61.9544 195.08 61.549C195.08 61.1864 194.974 60.8984 194.76 60.685C194.568 60.4717 194.291 60.301 193.928 60.173C193.587 60.0664 193.214 59.981 192.808 59.917C192.424 59.8744 192.051 59.8424 191.688 59.821L187.88 59.597C187.411 59.5544 187.038 59.501 186.76 59.437C186.483 59.373 186.248 59.2877 186.056 59.181L186.44 59.245C186.056 59.4584 185.726 59.7464 185.448 60.109C185.192 60.493 185.064 60.909 185.064 61.357C185.064 61.8264 185.192 62.2104 185.448 62.509C185.704 62.829 186.056 63.085 186.504 63.277C186.974 63.469 187.507 63.6077 188.104 63.693C188.723 63.7997 189.363 63.853 190.024 63.853ZM191.88 42.733H198.92V44.909H195.08L191.88 42.733ZM202.239 47.789C202.239 46.829 202.228 45.933 202.207 45.101C202.207 44.269 202.186 43.4797 202.143 42.733L205.695 42.605L205.983 44.845H206.111C206.474 44.5037 206.922 44.141 207.455 43.757C208.01 43.373 208.639 43.053 209.343 42.797C210.047 42.5197 210.826 42.381 211.679 42.381C212.554 42.381 213.322 42.5304 213.983 42.829C214.666 43.1277 215.242 43.5757 215.711 44.173C216.18 44.749 216.532 45.4744 216.767 46.349C217.023 47.2024 217.151 48.1837 217.151 49.293V59.373H213.023V49.421C213.023 48.717 212.938 48.1304 212.767 47.661C212.596 47.1704 212.372 46.7864 212.095 46.509C211.818 46.2104 211.498 45.997 211.135 45.869C210.794 45.741 210.442 45.677 210.079 45.677C209.524 45.677 209.012 45.773 208.543 45.965C208.095 46.157 207.69 46.4024 207.327 46.701C206.964 46.9784 206.644 47.2664 206.367 47.565V59.373H202.239V47.789ZM230.411 42.733L234.539 42.605V59.373H230.411V42.733ZM232.459 40.397C231.798 40.397 231.222 40.1837 230.731 39.757C230.262 39.3304 230.027 38.7757 230.027 38.093C230.027 37.4104 230.262 36.8557 230.731 36.429C231.222 36.0024 231.798 35.789 232.459 35.789C233.121 35.789 233.686 36.0024 234.155 36.429C234.646 36.8557 234.891 37.4104 234.891 38.093C234.891 38.7757 234.646 39.3304 234.155 39.757C233.686 40.1837 233.121 40.397 232.459 40.397ZM239.525 47.789C239.525 46.829 239.515 45.933 239.493 45.101C239.493 44.269 239.472 43.4797 239.429 42.733L242.981 42.605L243.269 44.845H243.397C243.76 44.5037 244.208 44.141 244.741 43.757C245.296 43.373 245.925 43.053 246.629 42.797C247.333 42.5197 248.112 42.381 248.965 42.381C249.84 42.381 250.608 42.5304 251.269 42.829C251.952 43.1277 252.528 43.5757 252.997 44.173C253.467 44.749 253.819 45.4744 254.053 46.349C254.309 47.2024 254.437 48.1837 254.437 49.293V59.373H250.309V49.421C250.309 48.717 250.224 48.1304 250.053 47.661C249.883 47.1704 249.659 46.7864 249.381 46.509C249.104 46.2104 248.784 45.997 248.421 45.869C248.08 45.741 247.728 45.677 247.365 45.677C246.811 45.677 246.299 45.773 245.829 45.965C245.381 46.157 244.976 46.4024 244.613 46.701C244.251 46.9784 243.931 47.2664 243.653 47.565V59.373H239.525V47.789ZM265.906 42.733H270.194L273.042 55.693H273.106L274.322 50.605L276.402 42.733H279.858L281.938 50.605L283.154 55.693H283.218L286.066 42.733H290.386L285.522 59.373H281.298L278.162 47.789H278.098L274.994 59.373H270.738L265.906 42.733ZM293.72 42.733L297.848 42.605V59.373H293.72V42.733ZM295.768 40.397C295.107 40.397 294.531 40.1837 294.04 39.757C293.571 39.3304 293.336 38.7757 293.336 38.093C293.336 37.4104 293.571 36.8557 294.04 36.429C294.531 36.0024 295.107 35.789 295.768 35.789C296.429 35.789 296.995 36.0024 297.464 36.429C297.955 36.8557 298.2 37.4104 298.2 38.093C298.2 38.7757 297.955 39.3304 297.464 39.757C296.995 40.1837 296.429 40.397 295.768 40.397ZM308.402 59.725C307.399 59.725 306.589 59.5757 305.97 59.277C305.351 58.9784 304.871 58.5624 304.53 58.029C304.189 57.4744 303.954 56.845 303.826 56.141C303.698 55.4157 303.634 54.6157 303.634 53.741V45.741H301.426L301.618 42.861L303.826 42.733L304.082 38.957L307.762 38.189V42.733H311.73L311.506 45.741H307.762V53.325C307.762 53.8797 307.826 54.381 307.954 54.829C308.082 55.2557 308.306 55.6077 308.626 55.885C308.967 56.1624 309.458 56.301 310.098 56.301C310.375 56.301 310.642 56.2904 310.898 56.269C311.175 56.2264 311.431 56.173 311.666 56.109L311.698 59.245C311.357 59.3517 310.866 59.4584 310.226 59.565C309.607 59.6717 308.999 59.725 308.402 59.725ZM315.575 35.437L319.735 35.309V44.845H319.767C320.237 44.3757 320.738 43.9597 321.271 43.597C321.826 43.213 322.413 42.9144 323.031 42.701C323.65 42.4877 324.311 42.381 325.015 42.381C325.911 42.381 326.69 42.5304 327.351 42.829C328.034 43.1277 328.61 43.5864 329.079 44.205C329.549 44.8024 329.901 45.5384 330.135 46.413C330.391 47.2664 330.519 48.2584 330.519 49.389V59.373H326.391V49.581C326.391 48.877 326.317 48.2797 326.167 47.789C326.018 47.2984 325.805 46.9037 325.527 46.605C325.271 46.285 324.962 46.0504 324.599 45.901C324.237 45.7517 323.842 45.677 323.415 45.677C322.861 45.677 322.349 45.7837 321.879 45.997C321.431 46.189 321.026 46.4237 320.663 46.701C320.301 46.9784 319.991 47.2664 319.735 47.565V59.373H315.575V35.437ZM349.219 36.077H354.499L361.603 59.373H357.283L353.123 43.853L351.875 39.501H351.811L350.563 43.853L346.435 59.373H342.115L349.219 36.077ZM348.675 49.805H355.043L355.779 53.037H347.939L348.675 49.805ZM364.893 48.141C364.893 47.2237 364.882 46.2957 364.861 45.357C364.861 44.397 364.839 43.5224 364.797 42.733L368.349 42.605L368.637 44.973H368.733C369.351 44.2904 370.098 43.693 370.973 43.181C371.869 42.6477 372.871 42.381 373.981 42.381C375.325 42.381 376.466 42.7224 377.405 43.405C378.365 44.0877 379.101 45.0584 379.613 46.317C380.125 47.5544 380.381 49.0264 380.381 50.733C380.381 52.525 380.071 54.1037 379.453 55.469C378.855 56.813 378.045 57.8584 377.021 58.605C375.997 59.3517 374.834 59.725 373.533 59.725C372.85 59.725 372.231 59.6184 371.677 59.405C371.122 59.213 370.631 58.957 370.205 58.637C369.778 58.2957 369.405 57.9224 369.085 57.517H369.053V66.541H364.893V48.141ZM372.381 56.493C373.277 56.493 373.991 56.237 374.525 55.725C375.079 55.1917 375.485 54.4984 375.741 53.645C375.997 52.7917 376.125 51.885 376.125 50.925C376.125 49.7304 375.975 48.749 375.677 47.981C375.378 47.213 374.951 46.637 374.397 46.253C373.863 45.869 373.234 45.677 372.509 45.677C372.039 45.677 371.581 45.773 371.133 45.965C370.685 46.1357 370.279 46.3704 369.917 46.669C369.575 46.9677 369.287 47.2877 369.053 47.629V53.805C369.159 54.253 369.362 54.6797 369.661 55.085C369.959 55.4904 370.343 55.8317 370.813 56.109C371.282 56.365 371.805 56.493 372.381 56.493ZM384.478 48.141C384.478 47.2237 384.467 46.2957 384.446 45.357C384.446 44.397 384.424 43.5224 384.382 42.733L387.934 42.605L388.222 44.973H388.318C388.936 44.2904 389.683 43.693 390.558 43.181C391.454 42.6477 392.456 42.381 393.566 42.381C394.91 42.381 396.051 42.7224 396.99 43.405C397.95 44.0877 398.686 45.0584 399.198 46.317C399.71 47.5544 399.966 49.0264 399.966 50.733C399.966 52.525 399.656 54.1037 399.038 55.469C398.44 56.813 397.63 57.8584 396.606 58.605C395.582 59.3517 394.419 59.725 393.118 59.725C392.435 59.725 391.816 59.6184 391.262 59.405C390.707 59.213 390.216 58.957 389.79 58.637C389.363 58.2957 388.99 57.9224 388.67 57.517H388.638V66.541H384.478V48.141ZM391.966 56.493C392.862 56.493 393.576 56.237 394.11 55.725C394.664 55.1917 395.07 54.4984 395.326 53.645C395.582 52.7917 395.71 51.885 395.71 50.925C395.71 49.7304 395.56 48.749 395.262 47.981C394.963 47.213 394.536 46.637 393.982 46.253C393.448 45.869 392.819 45.677 392.094 45.677C391.624 45.677 391.166 45.773 390.718 45.965C390.27 46.1357 389.864 46.3704 389.502 46.669C389.16 46.9677 388.872 47.2877 388.638 47.629V53.805C388.744 54.253 388.947 54.6797 389.246 55.085C389.544 55.4904 389.928 55.8317 390.398 56.109C390.867 56.365 391.39 56.493 391.966 56.493ZM404.063 35.437L408.191 35.309V59.373H404.063V35.437ZM420.731 59.725C418.875 59.725 417.318 59.3837 416.059 58.701C414.822 57.997 413.883 57.005 413.243 55.725C412.624 54.445 412.315 52.9304 412.315 51.181C412.315 49.9864 412.475 48.8664 412.795 47.821C413.136 46.7544 413.638 45.8157 414.299 45.005C414.982 44.173 415.824 43.533 416.827 43.085C417.83 42.6157 418.992 42.381 420.315 42.381C421.659 42.381 422.8 42.6264 423.739 43.117C424.678 43.6077 425.414 44.2904 425.947 45.165C426.502 46.0397 426.864 47.0637 427.035 48.237C427.206 49.389 427.195 50.6264 427.003 51.949H414.523L416.699 50.349C416.336 51.693 416.294 52.8344 416.571 53.773C416.848 54.7117 417.392 55.4264 418.203 55.917C419.035 56.4077 420.07 56.653 421.307 56.653C422.16 56.653 423.003 56.5677 423.835 56.397C424.667 56.205 425.371 56.0237 425.947 55.853L426.395 58.701C425.627 58.9997 424.731 59.245 423.707 59.437C422.704 59.629 421.712 59.725 420.731 59.725ZM414.555 49.741H423.355C423.376 49.6344 423.387 49.5384 423.387 49.453C423.387 49.3677 423.387 49.3037 423.387 49.261C423.387 48.4717 423.28 47.7784 423.067 47.181C422.854 46.5837 422.502 46.1144 422.011 45.773C421.542 45.4104 420.923 45.229 420.155 45.229C419.259 45.229 418.512 45.4957 417.915 46.029C417.339 46.5624 416.923 47.245 416.667 48.077C416.432 48.909 416.368 49.7944 416.475 50.733L414.555 49.741Z" fill="white"/>
</g>
<defs>
<filter id="filter0_d_1429_2" x="0" y="0" width="539" height="101.227" filterUnits="userSpaceOnUse" color-interpolation-filters="sRGB">
<feFlood flood-opacity="0" result="BackgroundImageFix"/>
<feColorMatrix in="SourceAlpha" type="matrix" values="0 0 0 0 0 0 0 0 0 0 0 0 0 0 0 0 0 0 127 0" result="hardAlpha"/>
<feOffset dx="4" dy="4"/>
<feGaussianBlur stdDeviation="2"/>
<feComposite in2="hardAlpha" operator="out"/>
<feColorMatrix type="matrix" values="0 0 0 0 0.470833 0 0 0 0 0.470833 0 0 0 0 0.470833 0 0 0 0.25 0"/>
<feBlend mode="normal" in2="BackgroundImageFix" result="effect1_dropShadow_1429_2"/>
<feBlend mode="normal" in="SourceGraphic" in2="effect1_dropShadow_1429_2" result="shape"/>
</filter>
<clipPath id="clip0_1429_2">
<rect width="37.9153" height="40" fill="white" transform="translate(89.5 26.373)"/>
</clipPath>
</defs>
</svg>
