<svg width="487" height="147" viewBox="0 0 487 147" fill="none" xmlns="http://www.w3.org/2000/svg">
<rect x="4" y="21.251" width="483" height="124.94" rx="20" fill="#35626C"/>
<rect x="4.32227" y="4" width="473.711" height="128.207" rx="24" fill="white" stroke="white" stroke-width="8"/>
<rect x="12.3223" y="12" width="457.711" height="112.207" rx="16" fill="white" stroke="#4D818D" stroke-width="8"/>
<path d="M102.875 70C102.875 82.0508 93.0605 91.8652 81.0098 91.8652C76.2383 91.8652 71.7139 90.3438 67.9043 87.4844C66.5234 86.4502 66.2441 84.4902 67.2802 83.1084C68.3163 81.7324 70.2772 81.4512 71.6552 82.4858C74.3739 84.5278 77.6122 85.605 81.0194 85.605C89.623 85.6055 96.625 78.6035 96.625 70C96.625 61.3965 89.626 54.3945 81.0195 54.3945C76.1074 54.3965 71.4883 56.748 68.5586 60.625H74.75C76.4756 60.625 77.875 62.0225 77.875 63.75C77.875 65.4775 76.4785 66.875 74.75 66.875H60.6875C58.9619 66.875 57.5625 65.4775 57.5625 63.75V49.6875C57.5625 47.96 58.9619 46.5625 60.6875 46.5625C62.4131 46.5625 63.8125 47.96 63.8125 49.6875V56.5459C67.9238 51.3066 74.1738 48.1357 81.0098 48.1357C93.0605 48.1357 102.875 57.9492 102.875 70Z" fill="#4D818D"/>
</svg>
