<svg width="487" height="147" viewBox="0 0 487 147" fill="none" xmlns="http://www.w3.org/2000/svg">
<rect x="4" y="21.251" width="483" height="124.94" rx="20" fill="#E08735"/>
<rect x="4.32227" y="4" width="473.711" height="128.207" rx="24" fill="white" stroke="white" stroke-width="8"/>
<rect x="12.3223" y="12" width="457.711" height="112.207" rx="16" fill="white" stroke="#FF9B3F" stroke-width="8"/>
<g clip-path="url(#clip0_1723_208)">
<path d="M87.8992 49.0205C88.6984 49.1611 89.0422 50.2842 88.4578 50.9502L85.1922 54.5332L85.9656 59.6113C86.0086 60.5293 85.2523 61.2324 84.5133 60.8125L80.5172 58.4199L76.4867 60.8418C75.7477 61.2617 74.9141 60.5586 75.0344 59.6504L75.8078 54.5625L72.5422 50.9502C71.9578 50.2842 72.3016 49.1611 73.1008 49.0205L77.5953 48.2842L79.6234 43.6183C79.993 42.7764 81.0414 42.8115 81.3766 43.6183L83.4047 48.2842L87.8992 49.0205ZM86 68C87.5211 68 88.75 69.3965 88.75 71.125V89.875C88.75 91.6035 87.5211 93 86 93H75C73.4789 93 72.25 91.6035 72.25 89.875V71.125C72.25 69.3965 73.4789 68 75 68H86ZM66.75 74.25C68.2711 74.25 69.5 75.6465 69.5 77.375V89.875C69.5 91.6035 68.2711 93 66.75 93H55.75C54.2315 93 53 91.6035 53 89.875V77.375C53 75.6465 54.2315 74.25 55.75 74.25H66.75ZM91.5 83.625C91.5 81.8965 92.7289 80.5 94.25 80.5H105.25C106.771 80.5 108 81.8965 108 83.625V89.875C108 91.6035 106.771 93 105.25 93H94.25C92.7289 93 91.5 91.6035 91.5 89.875V83.625Z" fill="#FF843F"/>
</g>
<defs>
<clipPath id="clip0_1723_208">
<rect width="55" height="50" fill="white" transform="translate(53 43)"/>
</clipPath>
</defs>
</svg>
