<svg width="487" height="147" viewBox="0 0 487 147" fill="none" xmlns="http://www.w3.org/2000/svg">
<rect x="4" y="21.251" width="483" height="124.94" rx="20" fill="#35626C"/>
<rect x="4.32227" y="4" width="473.711" height="128.207" rx="24" fill="white" stroke="white" stroke-width="8"/>
<rect x="12.3223" y="12" width="457.711" height="112.207" rx="16" fill="white" stroke="#4D818D" stroke-width="8"/>
<g clip-path="url(#clip0_1723_207)">
<path d="M102.75 77.8125V49.6875C102.75 47.0986 100.65 45 98.0625 45H68.375C63.1973 45 59 49.1973 59 54.375V85.625C59 90.8027 63.1973 95 68.375 95H99.625C101.351 95 102.75 93.6006 102.75 91.9629C102.75 90.8184 102.105 89.8613 101.188 89.3164V81.3711C102.145 80.4297 102.75 79.1992 102.75 77.8125ZM72.9746 57.5H91.7246C92.6719 57.5 93.375 58.2031 93.375 59.0625C93.375 59.9219 92.6719 60.625 91.8125 60.625H72.9746C72.2031 60.625 71.5 59.9219 71.5 59.0625C71.5 58.2031 72.2031 57.5 72.9746 57.5ZM72.9746 63.75H91.7246C92.6719 63.75 93.375 64.4531 93.375 65.3125C93.375 66.1719 92.6719 66.875 91.8125 66.875H72.9746C72.2031 66.875 71.5 66.1719 71.5 65.3125C71.5 64.4531 72.2031 63.75 72.9746 63.75ZM96.5 88.75H68.375C66.6494 88.75 65.25 87.3506 65.25 85.625C65.25 83.8994 66.6494 82.5 68.375 82.5H96.5V88.75Z" fill="#4D818D"/>
</g>
<defs>
<clipPath id="clip0_1723_207">
<rect width="43.75" height="50" fill="white" transform="translate(59 45)"/>
</clipPath>
</defs>
</svg>
