<svg width="487" height="147" viewBox="0 0 487 147" fill="none" xmlns="http://www.w3.org/2000/svg">
<rect x="4" y="21.251" width="483" height="124.94" rx="20" fill="#35626C"/>
<rect x="4.32227" y="4" width="473.711" height="128.207" rx="24" fill="white" stroke="white" stroke-width="8"/>
<rect x="12.3223" y="12" width="457.711" height="112.207" rx="16" fill="white" stroke="#4D818D" stroke-width="8"/>
<path d="M80.4914 76.25C85.4251 76.25 89.3516 71.7031 89.3516 66.0938C89.3516 60.4844 85.352 55.9375 80.4914 55.9375C75.5577 55.9375 71.6313 60.4844 71.6313 66.0938C71.5539 71.6992 75.5586 76.25 80.4914 76.25ZM84.7883 79.375H76.2117C69.4656 79.375 64 85.2051 64 92.3926C64 93.8379 65.0914 95 66.4406 95H94.5594C95.9086 95 97 93.8379 97 92.3926C97 85.2051 91.5344 79.375 84.7883 79.375ZM97 60.625C100.797 60.625 103.875 57.127 103.875 52.8125C103.875 48.498 100.798 45 97 45C93.2033 45 90.125 48.498 90.125 52.8125C90.125 57.127 93.2016 60.625 97 60.625ZM68.8039 66.0938C68.8039 65.5616 68.8883 65.0557 68.9422 64.54C68.0047 63.9551 66.9734 63.75 65.882 63.75H60.5694C56.3894 63.75 53 67.832 53 72.8613C53 73.8672 53.6778 74.6875 54.5142 74.6875H71.6587C69.9039 72.3633 68.8039 69.3848 68.8039 66.0938ZM64 60.625C67.7967 60.625 70.875 57.127 70.875 52.8125C70.875 48.498 67.7984 45 64 45C60.2033 45 57.125 48.498 57.125 52.8125C57.125 57.127 60.2033 60.625 64 60.625ZM100.429 63.75H95.1145C94.0145 63.75 92.9764 64.0466 92.0328 64.5547C92.0844 65.0684 92.1703 65.5664 92.1703 66.0938C92.1703 69.3857 91.072 72.3643 89.3206 74.6875H106.482C107.321 74.6875 108 73.8672 108 72.8613C108 67.832 104.614 63.75 100.429 63.75Z" fill="#4D818D"/>
</svg>
