<svg width="487" height="147" viewBox="0 0 487 147" fill="none" xmlns="http://www.w3.org/2000/svg">
<rect x="4" y="21.251" width="483" height="124.94" rx="20" fill="#35626C"/>
<rect x="4.32227" y="4" width="473.711" height="128.207" rx="24" fill="white" stroke="white" stroke-width="8"/>
<rect x="12.3223" y="12" width="457.711" height="112.207" rx="16" fill="white" stroke="#4D818D" stroke-width="8"/>
<path d="M101.312 51.25C103.9 51.25 106 53.3486 106 55.9375C106 57.4121 105.307 58.7988 104.125 59.6875L82.875 75.625C81.7617 76.4551 80.2383 76.4551 79.125 75.625L57.875 59.6875C56.6946 58.7988 56 57.4121 56 55.9375C56 53.3486 58.0986 51.25 60.6875 51.25H101.312ZM77.25 78.125C79.4766 79.7949 82.5234 79.7949 84.75 78.125L106 62.1875V82.5C106 85.9473 103.197 88.75 99.75 88.75H62.25C58.7979 88.75 56 85.9473 56 82.5V62.1875L77.25 78.125Z" fill="#4D818D"/>
</svg>
