<svg width="487" height="147" viewBox="0 0 487 147" fill="none" xmlns="http://www.w3.org/2000/svg">
<rect x="4" y="21.251" width="483" height="124.94" rx="20" fill="#35626C"/>
<rect x="4.32227" y="4" width="473.711" height="128.207" rx="24" fill="white" stroke="white" stroke-width="8"/>
<rect x="12.3223" y="12" width="457.711" height="112.207" rx="16" fill="white" stroke="#4D818D" stroke-width="8"/>
<path d="M53 80.4902L58.5 80.4942C60.0254 80.4942 61.25 79.0987 61.25 77.3662V55.5293H53V80.4902ZM57.125 74.2598C57.877 74.2598 58.5 74.9549 58.5 75.8213C58.5 76.675 57.877 77.3828 57.125 77.3828C56.373 77.3828 55.75 76.6719 55.75 75.8223C55.75 74.9531 56.373 74.2598 57.125 74.2598ZM82.975 49.25C82.2926 49.25 81.6292 49.5399 81.1256 50.0633L72.6711 58.8496C72.6625 58.8691 72.6625 58.8887 72.6453 58.8887C71.2188 60.4121 71.2445 62.8437 72.4648 64.3574C73.5605 65.6367 75.8491 66.0781 77.2885 64.626C77.3031 64.6113 77.3117 64.6113 77.3203 64.6016L84.185 57.4629C84.7436 56.8896 85.6245 56.9262 86.1289 57.5605C86.6445 58.1949 86.6016 59.1836 86.043 59.7695L83.7983 62.1006L96.3125 73.6348C96.5596 73.8785 96.7852 74.1227 96.9893 74.3908V55.4121C93.4675 51.4121 88.698 49.1738 83.7205 49.1738L82.975 49.25ZM81.7547 64.2305L79.1766 66.915C76.6199 69.5625 72.7098 69.3066 70.4281 66.4882C68.125 63.625 68.3055 59.1816 70.8148 56.5645L77.8445 49.25H77.2773C72.3102 49.25 67.532 51.5039 64.0172 55.4902L64 77.3555L65.5684 77.3591L73.3457 85.3493C75.709 87.5339 79.168 87.1188 81.0801 84.4464L82.6373 85.9347C84.002 87.1163 86.0215 86.96 87.1387 85.4101L89.8354 81.6406L90.2972 82.0799C91.4789 83.1541 93.2088 82.959 94.1644 81.6162L94.9841 80.4658C95.9397 79.123 95.7606 77.167 94.5807 76.0781L81.7547 64.2305ZM99.75 55.5391V77.375C99.75 79.0957 100.975 80.5049 102.423 80.5049L108 80.5V55.5098L99.75 55.5391ZM103.875 77.375C103.123 77.375 102.5 76.6674 102.5 75.8135C102.5 74.9468 103.123 74.252 103.875 74.252C104.627 74.252 105.25 74.9531 105.25 75.8223C105.25 76.6719 104.631 77.375 103.875 77.375Z" fill="#4D818D"/>
</svg>
