<svg width="487" height="147" viewBox="0 0 487 147" fill="none" xmlns="http://www.w3.org/2000/svg">
<rect x="4" y="21.251" width="483" height="124.94" rx="20" fill="#5688D2"/>
<rect x="4.32227" y="4" width="473.711" height="128.207" rx="24" fill="white" stroke="white" stroke-width="8"/>
<rect x="12.3223" y="12" width="457.711" height="112.207" rx="16" fill="white" stroke="#6BA3F5" stroke-width="8"/>
<path d="M104.428 61.2695C104.75 62.1094 104.476 63.0566 103.812 63.6719L99.5838 67.5195C99.6912 68.3301 99.7498 69.1602 99.7498 70C99.7498 70.8398 99.6912 71.6699 99.5838 72.4805L103.812 76.3281C104.476 76.9434 104.75 77.8906 104.428 78.7305C103.998 79.8926 103.48 81.0156 102.894 82.0801L102.435 82.8711C101.791 83.9453 101.068 84.9609 100.277 85.9277C99.6912 86.6211 98.744 86.8652 97.8846 86.5918L92.4451 84.8535C91.1365 85.8594 89.6033 86.6992 88.1482 87.3438L86.9275 92.9199C86.7322 93.7988 86.0486 94.4238 85.1502 94.6582C83.8025 94.8828 82.4158 95 80.9119 95C79.5838 95 78.1971 94.8828 76.8494 94.6582C75.951 94.4238 75.2674 93.7988 75.0721 92.9199L73.8514 87.3438C72.3084 86.6992 70.8631 85.8594 69.5545 84.8535L64.119 86.5918C63.2557 86.8652 62.3035 86.6211 61.7254 85.9277C60.9334 84.9609 60.2108 83.9453 59.5662 82.8711L59.1092 82.0801C58.5164 81.0156 58.0008 79.8926 57.5682 78.7305C57.2518 77.8906 57.5184 76.9434 58.1883 76.3281L62.4129 72.4805C62.3055 71.6699 62.2498 70.8398 62.2498 70C62.2498 69.1602 62.3055 68.3301 62.4129 67.5195L58.1883 63.6719C57.5184 63.0566 57.2518 62.1191 57.5682 61.2695C58.0008 60.1074 58.5174 58.9844 59.1092 57.9199L59.5652 57.1289C60.2107 56.0547 60.9334 55.0391 61.7254 54.0771C62.3035 53.3789 63.2557 53.1367 64.119 53.4121L69.5545 55.1465C70.8631 54.1367 72.3084 53.2969 73.8514 52.6592L75.0721 47.083C75.2674 46.1963 75.951 45.4922 76.8494 45.3428C78.1971 45.1173 79.5838 45 80.9998 45C82.4158 45 83.8025 45.1173 85.1502 45.3428C86.0486 45.4922 86.7322 46.1963 86.9275 47.083L88.1482 52.6592C89.6033 53.2969 91.1365 54.1367 92.4451 55.1465L97.8846 53.4121C98.744 53.1367 99.6912 53.3789 100.277 54.0771C101.068 55.0391 101.791 56.0547 102.435 57.1289L102.894 57.9199C103.48 58.9844 103.998 60.1074 104.428 61.2695ZM80.9998 77.8125C85.3162 77.8125 88.8123 74.3164 88.8123 69.9121C88.8123 65.6836 85.3162 62.0996 80.9998 62.0996C76.6834 62.0996 73.1873 65.6836 73.1873 69.9121C73.1873 74.3164 76.6834 77.8125 80.9998 77.8125Z" fill="#6BA3F5"/>
</svg>
