<svg width="487" height="147" viewBox="0 0 487 147" fill="none" xmlns="http://www.w3.org/2000/svg">
<rect x="4" y="21.251" width="483" height="124.94" rx="20" fill="#35626C"/>
<rect x="4.32227" y="4" width="473.711" height="128.207" rx="24" fill="white" stroke="white" stroke-width="8"/>
<rect x="12.3223" y="12" width="457.711" height="112.207" rx="16" fill="white" stroke="#4D818D" stroke-width="8"/>
<g clip-path="url(#clip0_1723_204)">
<path d="M92.04 61.6562C93.0231 61.6562 93.8275 62.4789 93.8275 63.6875V64.0938H99.19C100.173 64.0938 100.978 64.9164 100.978 66.125C100.978 67.2422 100.173 68.1562 99.19 68.1562H99.0113L98.8683 68.6133C98.0728 71.0102 96.8573 73.3461 95.3201 75.2555C95.4005 75.3062 95.4809 75.2758 95.5614 75.418L97.2506 76.5656C98.0996 77.1445 98.3677 78.3937 97.8583 79.3586C97.3578 80.3234 96.2585 80.6281 95.4094 80.0492L93.7203 78.9016C93.327 78.6273 92.8533 78.343 92.5494 78.0383C91.611 78.8 90.5921 79.4602 89.5196 80.0086L89.1889 80.1711C88.2863 80.6281 87.2316 80.1609 86.8294 79.1352C86.4273 78.1094 86.8384 76.9109 87.7411 76.4539L88.0628 76.2914C88.6348 75.9969 89.1889 75.5805 89.7163 75.2961L88.6348 74.057C87.9288 73.2648 87.9288 71.9852 88.6348 71.193C89.3319 70.3906 90.4581 70.3906 91.1552 71.193L92.4601 72.6656L92.5137 72.6352C93.6219 71.3961 94.5246 69.8523 95.1771 68.0648H85.605C84.5414 68.0648 83.8175 67.2422 83.8175 66.0336C83.8175 64.9164 84.5414 64.0023 85.605 64.0023H90.2525V63.5961C90.2525 62.4789 90.9764 61.5648 92.04 61.5648V61.6562ZM66.3 68.6844L67.9981 73.0312H64.5214L66.3 68.6844ZM52 58C52 54.4098 54.5606 51.5 57.72 51.5H103.48C106.635 51.5 109.2 54.4098 109.2 58V84C109.2 87.5852 106.635 90.5 103.48 90.5H57.72C54.5606 90.5 52 87.5852 52 84V58ZM80.6 84H103.48V58H80.6V84ZM67.9356 62.8648C67.6496 62.1336 67.0061 61.6562 66.3 61.6562C65.5939 61.6562 64.9504 62.1336 64.6644 62.8648L58.9462 77.4898C58.5458 78.4242 58.9516 79.7141 59.8543 80.1711C60.7561 80.6281 61.8134 80.1609 62.2156 79.1352L63.011 77.0023H69.589L70.3844 79.1352C70.7866 80.1609 71.8413 80.6281 72.7439 80.1711C73.6466 79.7141 74.0578 78.4242 73.6556 77.4898L67.9356 62.8648Z" fill="#4D818D"/>
</g>
<defs>
<clipPath id="clip0_1723_204">
<rect width="57.2" height="52" fill="white" transform="translate(52 45)"/>
</clipPath>
</defs>
</svg>
