<svg width="487" height="147" viewBox="0 0 487 147" fill="none" xmlns="http://www.w3.org/2000/svg">
<rect x="4" y="21.251" width="483" height="124.94" rx="20" fill="#E05791"/>
<rect x="4.32227" y="4" width="473.711" height="128.207" rx="24" fill="white" stroke="white" stroke-width="8"/>
<rect x="12.3223" y="12" width="457.711" height="112.207" rx="16" fill="white" stroke="#FF76B0" stroke-width="8"/>
<g clip-path="url(#clip0_1723_205)">
<path d="M103 48.125H59.25C55.7979 48.125 53 50.9229 53 54.375V85.625C53 89.0771 55.7979 91.875 59.25 91.875H103C106.452 91.875 109.25 89.0771 109.25 85.625V54.375C109.25 50.9229 106.447 48.125 103 48.125ZM70.1875 57.5C73.6396 57.5 76.4375 60.2979 76.4375 63.75C76.4375 67.2021 73.6396 70 70.1875 70C66.7354 70 63.9375 67.2021 63.9375 63.75C63.9375 60.2979 66.7402 57.5 70.1875 57.5ZM79.5625 82.5H60.8125C59.9492 82.5 59.25 81.7969 59.25 80.9375C59.25 76.6211 62.748 73.125 67.0625 73.125H73.3125C77.627 73.125 81.125 76.623 81.125 80.9375C81.125 81.7969 80.4219 82.5 79.5625 82.5ZM101.438 76.25H88.9375C88.0781 76.25 87.375 75.5469 87.375 74.6875C87.375 73.8281 88.0781 73.125 88.9375 73.125H101.438C102.297 73.125 103 73.8281 103 74.6875C103 75.5469 102.297 76.25 101.438 76.25ZM101.438 70H88.9375C88.0781 70 87.375 69.2969 87.375 68.4375C87.375 67.5781 88.0781 66.875 88.9375 66.875H101.438C102.297 66.875 103 67.5781 103 68.4375C103 69.2969 102.297 70 101.438 70ZM101.438 63.75H88.9375C88.0781 63.75 87.375 63.0469 87.375 62.1875C87.375 61.3281 88.0781 60.625 88.9375 60.625H101.438C102.297 60.625 103 61.3281 103 62.1875C103 63.0469 102.297 63.75 101.438 63.75Z" fill="#DF7EAD"/>
</g>
<defs>
<clipPath id="clip0_1723_205">
<rect width="56.25" height="50" fill="white" transform="translate(53 45)"/>
</clipPath>
</defs>
</svg>
