<svg width="487" height="147" viewBox="0 0 487 147" fill="none" xmlns="http://www.w3.org/2000/svg">
<rect x="4" y="21.251" width="483" height="124.94" rx="20" fill="#35626C"/>
<rect x="4.32227" y="4" width="473.711" height="128.207" rx="24" fill="white" stroke="white" stroke-width="8"/>
<rect x="12.3223" y="12" width="457.711" height="112.207" rx="16" fill="white" stroke="#4D818D" stroke-width="8"/>
<g clip-path="url(#clip0_1723_203)">
<path d="M101.696 84.4043L90.1628 65.9961V51.25H90.8561C92.1501 51.25 93.112 50.2002 93.112 48.9062L93.112 47.3438C93.112 46.0498 92.0622 45 90.8561 45H70.7194C69.4303 45 68.3766 46.0498 68.3766 47.3438L68.3766 48.9062C68.3766 50.2002 69.4264 51.25 70.6325 51.25H71.3258L71.5006 65.9961L60.0553 84.4043C57.196 89.0039 60.4919 95 65.9235 95H95.8258C101.257 95 104.557 88.9941 101.696 84.4043ZM72.3893 76.25L77.0915 68.6689C77.5358 68.1738 77.7409 67.5391 77.7409 66.875L77.7472 51.25H83.9963L83.9904 66.875C83.9904 67.5464 84.2101 68.1689 84.5641 68.6699L89.2643 76.25H72.3893Z" fill="#4D818D"/>
</g>
<defs>
<clipPath id="clip0_1723_203">
<rect width="43.75" height="50" fill="white" transform="translate(59 45)"/>
</clipPath>
</defs>
</svg>
